<?xml version="1.0" encoding="UTF-8" standalone="no"?>
<svg
   viewBox="0 0 128 128"
   version="1.1"
   id="svg15"
   sodipodi:docname="wip.svg"
   inkscape:version="1.2.2 (b0a8486541, 2022-12-01)"
   xmlns:inkscape="http://www.inkscape.org/namespaces/inkscape"
   xmlns:sodipodi="http://sodipodi.sourceforge.net/DTD/sodipodi-0.dtd"
   xmlns="http://www.w3.org/2000/svg"
   xmlns:svg="http://www.w3.org/2000/svg">
  <sodipodi:namedview
     id="namedview17"
     pagecolor="#505050"
     bordercolor="#ffffff"
     borderopacity="1"
     inkscape:showpageshadow="0"
     inkscape:pageopacity="0"
     inkscape:pagecheckerboard="1"
     inkscape:deskcolor="#505050"
     showgrid="false"
     inkscape:zoom="9.269728"
     inkscape:cx="73.357061"
     inkscape:cy="78.211572"
     inkscape:window-width="1920"
     inkscape:window-height="1025"
     inkscape:window-x="0"
     inkscape:window-y="32"
     inkscape:window-maximized="1"
     inkscape:current-layer="Something_Went_Wrong" />
  <defs
     id="defs4">
    <style
       id="style2">.cls-1{fill:rgb(250 204 21);}</style>
  </defs>
  <title
     id="title6">Something Went Wrong</title>
  <g
     id="Something_Went_Wrong"
     data-name="Something Went Wrong">
    <path
       class="cls-1"
       d="M 63.952166,33.346646 107.75424,104.48358 H 20.150097 Z m 5.00645,18.237779 c -0.38377,-0.38377 0,-0.270383 -9.367468,-0.270383 -0.506592,-0.0012 -0.907667,0.427907 -0.872204,0.933258 l 1.45658,32.271536 c 0,0.481705 0.390499,0.872204 0.872204,0.872204 h 5.808877 c 0.481705,0 0.872203,-0.390499 0.872203,-0.872204 1.587411,-34.774761 1.631021,-32.489587 1.229808,-32.934411 z m -5.00645,48.590465 c 4.662628,0 6.996835,-5.636907 3.700258,-8.933482 -3.296577,-3.296576 -8.933483,-0.962365 -8.93348,3.700263 2e-6,2.890227 2.342995,5.233219 5.233222,5.233219 z"
       id="path10"
       style="stroke-width:0.872204"
       sodipodi:nodetypes="ccccccccssccssss" />
    <path
       class="cls-1"
       d="M 2.3606366,102.81 56.200637,15.36 a 9.15,9.15 0 0 1 15.58,0 l 53.840003,87.45 c 3.71,6 -0.42,14.19 -7.79,14.19 H 10.150637 c -7.4800004,0 -11.4400004,-8.32 -7.7900004,-14.19 z m 8.7000004,4.65 c 0.44,0.78 -6.3800004,0.52 105.000003,0.52 a 1,1 0 0 0 0.87,-1.56 L 64.930637,21.89 a 1.07,1.07 0 0 0 -1.74,0 c -55.9500004,90.77 -52.56,84.77 -52.13,85.57 z"
       id="path12" />
  </g>
</svg>
